<?xml version="1.0" encoding="UTF-8"?>
<svg id="Layer_2" data-name="Layer 2" xmlns="http://www.w3.org/2000/svg" xmlns:xlink="http://www.w3.org/1999/xlink" viewBox="0 0 375 174.67">
  <defs>
    <style>
      .cls-1 {
        fill: #63743d;
      }

      .cls-1, .cls-2, .cls-3 {
        stroke-width: 0px;
      }

      .cls-2 {
        fill: #9ca456;
      }

      .cls-3 {
        fill: url(#radial-gradient);
      }
    </style>
    <radialGradient id="radial-gradient" cx="187.5" cy="87.34" fx="187.5" fy="51.3" r="200.81" gradientUnits="userSpaceOnUse">
      <stop offset="0" stop-color="#fff7df" stop-opacity=".4"/>
      <stop offset=".06" stop-color="#f5e7ce" stop-opacity=".55"/>
      <stop offset=".12" stop-color="#ecd8be" stop-opacity=".69"/>
      <stop offset=".2" stop-color="#e5ccb1" stop-opacity=".8"/>
      <stop offset=".29" stop-color="#dfc3a7" stop-opacity=".89"/>
      <stop offset=".4" stop-color="#dbbca1" stop-opacity=".95"/>
      <stop offset=".56" stop-color="#d9b99d" stop-opacity=".99"/>
      <stop offset=".99" stop-color="#d9b89c"/>
    </radialGradient>
  </defs>
  <g id="Layer_1-2" data-name="Layer 1">
    <rect class="cls-3" width="375" height="174.67"/>
    <g>
      <g>
        <path class="cls-2" d="M158.49,67.91c-.03.12-.09.28-.17.49-.07-.03-.17-.05-.31-.06-.3-.02-.52.06-.65.25-.13.19-.15.42-.06.69.14.42.44.77.9,1.08.37.28.56.43.93.72.11.07.17.1.28.17-.09-.02-.14-.03-.23-.04-.31-.06-.52.01-.62.2-.1.18-.09.42.02.7.08.2.19.39.33.57-.23-.11-.39-.17-.48-.2-.24-.06-.34-.01-.31.14.03.15.14.41.32.8-.31-.31-.55-.48-.71-.52-.09-.02-.19-.03-.31-.01.01.08.05.19.13.33s.14.23.19.28c.14.12.21.18.35.3-.16-.05-.36-.13-.6-.24-.02,0-.36-.12-.41-.09-.03.02.01.23.1.36.13.21.31.37.54.5.17.1.25.14.41.24-.02.03-.04.07-.06.1-.07.09-.09.15-.07.18.2.31.4.51.61.6.11.05.2.07.25.07.05,0,.1-.02.13-.05.05-.03.08-.04.13-.07-.02.08-.03.11-.04.18.09.24.22.44.37.61.11.13.23.22.34.28.1.05.1,0,.1-.06,0-.02.04-.1.06-.18,0-.04.01-.12.02-.26.05.09.1.19.17.31.06.12.13.24.2.36.11.19.22.36.33.5.11.14.2.23.28.27.08.04.14.02.19-.05.01-.27-.06-.59-.23-.93-.03-.06-.11-.19-.24-.4.28.27.55.46.8.56.27.11.46.1.58-.05.12-.15.12-.41,0-.8-.24,0-.49-.06-.75-.15-.18-.06-.34-.13-.42-.2-.11-.1-.15-.19-.1-.2.05,0,.16.02.34.08.02,0,.19.08.53.22.33.14.54.22.63.22.21.58.32.86.55,1.43.42.24.83.45,1.22.63s.79.35,1.19.5c.14.05.21.08.35.13.15.06.23.09.38.14.86.31,1.75.61,2.67.92.91.31,1.84.64,2.76.96.01.07.12.82.35,2.19.23,1.37.43,2.33.57,2.94-5.24-1.99-7.65-3.37-11.61-6.86-1.86-1.99-3.75-4.7-5.42-8.11-.11-.22-1.01-1.81-2.07-5.06-1.06-3.26-1.38-5.75-1.53-7.25.09-.03,1.11-.42,3.09-.98,1.98-.57,3.42-.83,4.3-.95,0,4.51.18,6.71.86,10.81-.18-.18-.4-.27-.65-.29-.54-.03-.73.22-.72.61,0,.16-.04.33-.07.45ZM159.48,75.14c-.19-.07-.33-.19-.42-.36-.06-.11-.08-.22-.07-.32.02-.2.1-.29.24-.29.12.1.2.17.24.2.15.13.21.22.18.26.11.35.05.52-.17.51ZM163.03,67.83c.07.16.17.38.3.67.04.06.05.1.09.16.03-.08.05-.12.09-.21.09-.21.19-.37.31-.49.12-.12.3-.24.45-.25.17,0,.42.09.6.14.19.06.35.15.5.28.21.27.33.56.37.87.05.36-.02.71-.22,1.05-.19.34-.4.6-.63.8-.15.08-.23.12-.38.2.15.03.22.05.37.08.28.02.48.04.58.06.38.09.79.21,1.07.4.34.24.6.73.75,1.25-.1.36-.24.58-.42.67-.1.03-.15.04-.25.07.12.07.18.11.3.19.33.4.51.75.57,1.04.06.35-.03.57-.27.66-.24.1-.56.09-.96-.03-.35-.11-.65-.25-.89-.43-.14-.12-.21-.18-.35-.3.13.17.19.25.32.42.21.28.4.54.55.77.16.23.3.48.44.74.04.1.08.23.12.4.11.42.03.58-.23.49-.19-.06-.4-.2-.63-.4-.23-.2-.46-.43-.66-.69.18.29.3.53.35.71.17.59-.15.79-.71.52-.3-.15-.59-.46-.81-.8-.23-.34-.41-.7-.54-1.1-.14-.42-.19-.77-.15-1.04-.32.19-.48.28-.79.45-.05.14-.19.17-.43.09-.22-.07-.45-.22-.69-.44.16,0,.19-.12.11-.36-.07-.19-.19-.35-.37-.48-.04-.07-.12-.13-.24-.18-.12-.05-.2-.02-.22,0-.04.02-.17-.01-.2,0-.03-.07-.04-.11-.07-.19-.02-.04-.06-.15-.12-.31-.05-.13-.11-.27-.2-.44-.08-.16-.23-.3-.29-.28-.03,0-.06.12-.06.27-.24-.19-.42-.42-.52-.69-.07-.19-.08-.34-.02-.46.06-.12.2-.15.35-.14.2.01.49,0,.77.04.29.05.59.1.9.16-.21-.21-.54-.31-.76-.4-.19-.08-.71-.46-1.43-.93-.64-.42-1.02-.81-1.13-1.13-.03-.08-.03-.16,0-.23.02-.07.06-.13.11-.18.05-.05.12-.07.18-.06.27-.1.41-.15.69-.26.22-.22.36-.49.32-.73-.04-.31.01-.59.29-.73.35.02.79.33,1.31.95.22.28.56.75,1,1.41-.13-.32-.24-.69-.33-1.13-.09-.41-.15-.82-.11-1.15.04-.35.37-.55.88-.49.19.02.35.09.47.2.14.12.33.41.55.89ZM161.89,70.79c-.13.13-.17.61.03,1.07.1.23.39.48.7.69.31.21.62.36.93.43.67.16.86-.13.54-.86-.3-.69-.75-1.25-1.21-1.4-.45-.15-.86-.08-.99.06Z"/>
        <path class="cls-2" d="M184.71,78.08c-.81.63-6.4-.68-9.31-1.01.11,1.36.53,2.82,1.22,4.32.49.84,1.05,1.32,1.71,1.47.5.11.93,0,1.29-.3.36-.3.59-.82.6-1.45,0-.27-.02-.72-.02-1.34,0-.61,0-1.12-.02-1.51.83.22,1.63.39,2.42.49,1.38.19,2.74.21,4.09.08-.02.75-.03,1.12-.06,1.85-.11,2.84-.94,4.95-2.26,6.47-1.32,1.52-2.79,2.15-4.53,1.84-.81-.14-1.65-.51-2.55-1.14-.9-.62-1.87-1.5-2.79-2.65-.91-1.13-1.66-2.47-2.23-3.87-.57-1.4-.99-2.89-1.22-4.47-.2-1.43-.24-2.93-.09-4.5.15-1.57.4-3.12.87-4.33.52-1.36,1.57-2.45,2.8-3.12,1.23-.67,2.51-.83,3.86-.51,1.04.24,2.03.77,2.95,1.58.92.8,1.76,1.94,2.49,3.38.42,1,.7,1.89.85,2.69.15.79.23,1.67.23,2.61,0,.62-.02,1.2-.07,1.73-.05.53-.09,1.59-.21,1.69ZM178.52,67.81c-.19-.26-.43-.36-.7-.32-.15.19-.23.28-.39.46-.17.14-.26.3-.25.49,0,.05.08.29.23.69.05.17.06.29.02.36,0,.05-.03.12-.09.21-.25-.51-.4-.8-.44-.86-.22-.32-.5-.49-.69-.59-.23-.11-.45-.17-.58.01-.13.18-.19.44-.18.76.04.72.25,1.21.64,1.48.11.08.24.22.38.42.07.04.09.11.08.2-.02.09-.08.11-.19.08-.21-.29-.47-.48-.75-.56-.27-.08-.49-.02-.66.18s-.24.47-.22.84c0,.08.04.23.1.45.23.2.45.39.68.58.26.08.53.08.81.02.28-.06.44-.23.49-.5.06.08.09.11.14.19.02.03.03.08,0,.15-.05.27-.17.41-.37.44-.18.23-.26.47-.25.73.03.51.43.96.93.99.28.02.54-.18.59-.42.05-.24.1-.6.14-1.1.16.06.25.1.29.12.03.02.03.05-.01.09-.06.54.09.97.45,1.27.19.24.39.38.61.43.22.04.41-.02.56-.19.15-.17.22-.39.21-.67-.01-.41-.2-.77-.54-1.09-.04,0-.07-.12-.08-.32.07-.06.13-.05.2.04.14.09.21.13.34.22.14.31.35.49.62.54.13.02.26,0,.37-.05.13-.24.19-.35.32-.59.07-.07.04-.3-.09-.7-.1-.17-.25-.27-.45-.31-.14-.03-.29-.03-.46-.03-.17,0-.29-.04-.36-.13.08-.19.19-.27.33-.25.2-.04.38-.13.52-.27.14-.14.21-.45.31-.62.05-.1.16-.24.16-.4,0-.13-.04-.28-.12-.45-.07-.17-.17-.42-.29-.56-.18-.2-.46-.32-.6-.35-.23-.05-.56.3-.99,1.02-.19.32-.4.46-.63.41.08-.22.16-.45.24-.69.08-.24.12-.49.11-.73-.02-.4-.19-.77-.52-1.11ZM178.59,71.13c.12.23.18.54.1.72-.05.1-.21.23-.37.36-.16.13-.32.07-.49-.09-.18-.18-.32-.4-.33-.66-.01-.29.05-.49.2-.61.15-.12.35-.09.61.07.09.02.18.09.28.22Z"/>
        <path class="cls-2" d="M201.32,61.96c.89.59,1.51,1.51,1.79,2.6.19.72.28,1.77.22,3.13-.02.43-.03.64-.06,1.07-.08,1.29-.14,1.93-.29,3.18-.03.05-.08.11-.15.18-1.26.23-2.47.44-3.62.63-1.16.19-3.18.64-3.46.43-.07-.05-.04-.45.04-.65-.03-.93-.06-1.39-.12-2.34-.31.37-.54.6-.69.69-.15.09-.29.13-.4.14-.23.02-.39-.1-.49-.34-.1-.24-.14-.42-.11-.52.05-.25.17-.56.36-.92.05-.1.14-.27.28-.51-.02.03-.05.05-.07.08-.02.03-.08.07-.16.14-.08.07-.15.1-.19.11-.35.14-.65.22-.91.23-.21,0-.39-.01-.54-.06s-.28-.15-.39-.3c-.11-.15-.18-.23-.23-.23-.07,0-.11.15-.1.46,0,.38.04.85.1,1.39.07.54.13.95.19,1.22.19.99.94,1.73,2.22,2.13.71.23,1.76.32,3.05.32,2.3,0,3.76.08,4.27.36.88.45,1.11,1.75.57,3.82-.59,2.28-1.76,4.22-3.26,5.88-1.49,1.66-3.22,2.76-4.92,3.4-1.28.49-2.42.92-3.34,1.04-1.8.25-2.96-.33-3.51-1.7-.42-1.02-.55-2.84-.42-5.65,0-.02,0-.05,0-.07,0-.02,0-.11.01-.27.02-.48.05-.92.1-1.32s.11-.61.17-.61c.99.05,1.49.06,2.47.06.97,0,1.98-.02,3.01-.06,1.03-.04,1.56,0,1.6.2-.03,1.06-.05,1.58-.12,2.6-.04.66.13.94.53.88.32-.05.58-.32.79-.74.2-.4.36-.82.44-1.25.08-.48.07-.99-.06-1.54-.13-.56-.63-.89-1.49-1.02-.44-.07-1.21-.04-2.32.01-1.28.07-2.28-.15-3.01-.62-.88-.56-1.45-1.48-1.72-2.74-.26-1.26-.4-2.56-.41-3.89-.02-1.76.22-3.39.74-4.86.51-1.47,1.34-2.51,2.48-3.15,1.13-.64,2.18-1.13,3.15-1.45.97-.32,1.97-.52,3.02-.61.86-.07,1.72-.02,2.58.15.85.17,1.69.46,2.38.91ZM191.58,81.77c.01-.11.03-.26.05-.46.02-.2-.1-.36-.31-.41-.22-.05-.45.01-.59.13-.14.12-.23.36-.26.74-.02.16-.02.24-.04.4-.05-.15-.09-.25-.13-.29-.2-.34-.44-.52-.69-.51-.17,0-.33.07-.48.21-.15.14-.23.29-.24.47-.02.22.13.54.43.95-.03.04-.05.08-.07.1-.18-.08-.35-.16-.5-.24-.15-.08-.28-.11-.39-.11-.15,0-.26.08-.34.23-.14.2-.22.36-.23.49-.02.24.22.36.7.36.04,0,.13,0,.27-.02s.28-.03.43-.06c-.35.16-.59.28-.72.37-.42.26-.53.5-.34.71.09.1.2.16.32.15.19,0,.41-.13.68-.37.07-.06.17-.17.31-.33-.15.2-.28.38-.4.55-.19.28-.3.51-.32.7-.02.21.07.37.28.48.24,0,.44-.1.62-.32.18-.22.25-.51.31-.68.04-.11.17-.27.26-.42.06.02.08.09.06.21,0,.06-.06.21-.15.44s-.14.39-.15.47c-.03.18.04.28.2.29.14.01.21.02.35.03.26-.02.44-.11.55-.26.11-.15.19-.36.23-.62.06-.39.03-.67-.08-.85.21.33.35.54.41.64.17.18.34.26.52.24.22-.03.48-.24.72-.63.2-.31.04-.54-.49-.67-.53-.13-.79-.24-.78-.33.01-.08.1-.18.25-.27.2-.02.42-.04.65-.06.29-.03.52-.12.69-.26.17-.15.24-.41.25-.75,0-.24-.06-.37-.22-.35-.06,0-.47.26-1.21.72-.1-.01-.2-.03-.3-.04.28-.23.58-.5.91-.8.33-.3.4-.52.21-.65-.07-.15-.16-.22-.29-.2-.17.01-.35.13-.54.34-.19.21-.32.4-.38.58ZM191.34,83.3c-.03.23-.15.43-.35.58-.2.15-.43.23-.67.25-.39.02-.57-.14-.53-.48,0-.09.05-.22.14-.39.26-.55.56-.83.87-.85.19-.01.34.07.44.25.1.18.14.39.11.65ZM196.78,61.83c-.22-.11-.42-.16-.61-.14-.3.02-.49.31-.58.87-.08.56-.15.85-.2.85-.09,0-.28-.18-.56-.55-.16-.25-.3-.43-.44-.54-.14-.11-.32-.16-.56-.16-.1,0-.23.05-.4.13-.17.08-.3.17-.39.28-.24.31-.36.61-.34.9,0,.18.09.39.24.63.08.11.19.28.34.51-.1-.02-.19-.04-.27-.06-.08-.01-.17-.02-.27-.02-.19,0-.36.05-.51.16-.15.1-.22.29-.21.55.02.45.3.84.85,1.17.17.1.43.21.79.33.17.1.32.14.46.14.16,0,.27-.09.31-.25.04-.16,0-.23-.14-.23-.28-.09-.7-.19-1.17-.35-.37-.13-.65-.4-.8-.74,0-.21.13-.31.42-.31.26,0,.65.1,1.18.29.19.07.38.14.57.21.19,0,.27-.07.24-.19-.03-.11-.16-.2-.4-.27-.31-.25-.56-.49-.73-.72-.27-.33-.42-.65-.43-.93,0-.18.04-.35.15-.49.11-.14.24-.22.38-.22.21,0,.46.14.73.44.27.3.58.69.9,1.17.13.25.28.37.47.36.07,0,.13-.04.17-.09.04-.05.04-.11,0-.16-.14-.12-.23-.48-.26-1.08-.01-.28.02-.61.1-.98.08-.37.27-.47.56-.32.41.25.72.69.92,1.35.06.2.12.49.18.88.36-.43.62-.74.8-.92.58-.57,1.02-.75,1.16-.56.17.22.07.7-.26,1.25-.11.17-.29.41-.53.7.14-.05.45-.18.95-.4.49-.22.88-.37,1.15-.42.42-.08.64,0,.67.25.13.46-.3.87-1.28,1.17-.98.3-1.46.59-1.46.89.55-.08,1.11-.14,1.68-.17.56-.03.9.09,1.01.37.04.19.06.31.06.36,0,.35-.27.59-.8.69-.34.07-.87.06-1.58-.06-.21-.02-.49-.07-.86-.17-.07-.07-.15-.06-.24.03-.09.09-.14.17-.14.25,0,.4.37.9,1.08,1.46.33.27.53.5.59.71.02.07-.03.19-.13.37-.11.18-.26.28-.44.31-.23.04-.5-.08-.83-.35-.33-.27-.72-.74-1.17-1.41-.07-.19-.15-.29-.24-.28-.07,0-.2.14-.4.4-.2.26-.33.39-.4.39-.12.01-.17-.25-.17-.78,0-.18-.1-.22-.28-.13-.28.14-.52.4-.72.75-.2.35-.3.72-.31,1.09,0,.42.07.63.23.62.16-.01.37-.17.63-.49.12-.16.24-.33.36-.52.11.17.16.26.27.42.19-.14.36-.39.53-.76.03-.1.07-.22.14-.35.08.2.12.3.2.5.27.44.56.77.88.98.32.21.69.29,1.13.22.2-.03.43-.11.68-.23.11-.02.21-.1.28-.23.07-.13.15-.3.23-.48.07-.09-.19-.46-.81-1.15-.2-.22-.51-.54-.95-.98.41.12.85.23,1.3.34.45.11.84.13,1.16.06.39-.08.65-.33.83-.62.17-.29.32-.58.32-.86,0-.38-.25-.63-.75-.79-.23,0-.46-.02-.69-.06.11-.1.24-.21.38-.34.92-.26,1.37-.91,1.14-1.62-.12-.37-.45-.56-.82-.49-.25.05-.54.17-.86.36-.16.08-.38.2-.65.35.07-.11.15-.28.26-.51.02-.08.03-.21.02-.39,0-.08,0-.16-.01-.25,0-.09-.03-.22-.07-.39-.05-.17-.17-.24-.38-.21-.25.04-.63.31-1.15.78-.16.15-.37.37-.63.66-.04-.83-.31-1.42-.8-1.81ZM195.41,67.6c-.17-.47-.43-.7-.78-.68-.26.01-.65.16-1.19.43-.05,0-.17.18-.38.53-.21.35-.31.62-.31.79,0,.18.09.27.28.26.21.1.68-.09,1.4-.59.23-.14.56-.39.97-.75Z"/>
        <path class="cls-2" d="M217.98,55.59c.76.31,1.26,1.06,1.44,2.07.11.66.11,1.69-.1,3.05-.06.43-.1.64-.18,1.07-.24,1.29-.38,1.93-.73,3.18-.03.06-.08.13-.15.22-1.04.61-2.07,1.18-3.08,1.73-1.01.55-3.01,1.56-3.08,1.51-.03-.02.03-.42.13-.64.1-.88.13-1.33.18-2.23-.32.46-.55.76-.7.89-.15.13-.27.22-.38.27-.21.09-.35.03-.41-.17-.06-.2-.08-.36-.05-.47.07-.26.21-.6.41-1.02.05-.12.15-.31.3-.59-.02.03-.05.07-.07.1-.02.03-.08.1-.16.19-.08.09-.14.15-.19.17-.33.26-.62.43-.86.53-.19.08-.36.12-.5.13-.14,0-.25-.05-.34-.16-.09-.11-.15-.16-.2-.14-.07.02-.11.19-.13.48-.03.37-.03.81-.03,1.31,0,.5.02.87.05,1.11.06.89.65,1.34,1.74,1.3.6-.01,1.5-.26,2.63-.68,1.95-.73,3.11-1.1,3.45-1,.58.15.43,1.31-.65,3.35-1.2,2.26-2.86,4.34-4.65,6.29-1.78,1.95-3.47,3.51-5,4.69-1.21.94-2.19,1.68-2.96,2.13-1.51.88-2.23.8-2.25-.21-.02-.76.45-2.34,1.2-4.96,0-.02.01-.04.02-.06,0-.02.03-.11.07-.25.13-.45.25-.87.38-1.26.13-.39.22-.6.28-.62.91-.31,1.36-.47,2.24-.82.88-.34,1.77-.7,2.69-1.09.91-.38,1.35-.51,1.34-.34-.28,1-.44,1.48-.8,2.43-.23.61-.19.81.16.62.28-.16.57-.48.88-.94.29-.44.55-.87.74-1.28.21-.46.34-.92.38-1.4.04-.47-.31-.62-1.02-.46-.37.08-1.04.36-2.03.78-1.15.49-2.01.64-2.58.46-.7-.22-1.08-.86-1.16-1.96-.07-1.09-.06-2.27.05-3.54.14-1.68.46-3.33,1.01-4.95.54-1.62,1.33-2.98,2.39-4.04,1.06-1.06,2.05-1.92,2.96-2.59s1.86-1.21,2.83-1.65c.8-.36,1.6-.6,2.38-.7.78-.1,1.53-.07,2.12.17ZM206.67,77.85c.04-.1.1-.25.17-.44.07-.19,0-.3-.16-.27-.2.03-.4.17-.55.32-.15.16-.29.41-.42.77-.05.15-.08.23-.14.38,0-.12-.02-.19-.04-.22-.09-.25-.25-.32-.48-.23-.15.06-.31.18-.48.36-.17.18-.28.35-.33.52-.07.21-.02.45.13.71-.03.05-.07.09-.09.12-.14-.01-.26-.02-.38-.04-.12-.01-.22,0-.32.03-.13.05-.25.16-.36.33-.18.23-.29.4-.33.53-.08.22.1.25.52.08.04-.02.12-.05.24-.11s.25-.13.39-.2c-.35.27-.59.46-.74.59-.44.39-.61.64-.51.76.05.06.13.07.24.02.16-.07.4-.26.7-.57.08-.08.2-.22.37-.4-.18.23-.35.44-.51.64-.25.32-.42.56-.49.74-.09.19-.06.31.08.33.2-.08.41-.24.64-.51.22-.26.38-.54.49-.72.08-.14.23-.3.36-.47.04,0,.04.05-.01.17-.03.06-.12.21-.27.45-.15.24-.25.4-.28.47-.08.17-.06.23.07.19.11-.04.17-.06.28-.1.22-.11.4-.25.55-.43.15-.17.28-.38.41-.64.18-.37.25-.61.21-.73.07.23.11.37.14.43.08.11.19.12.34.04.19-.1.47-.37.81-.81.27-.35.22-.5-.18-.43-.4.07-.59.06-.56-.02s.13-.19.3-.33c.18-.09.37-.18.56-.28.25-.13.47-.28.66-.48.19-.19.33-.46.44-.77.08-.23.06-.32-.09-.25-.06.03-.47.39-1.23,1.07-.08.02-.17.05-.25.07.3-.31.64-.66,1-1.04.36-.39.48-.61.35-.67-.02-.11-.08-.14-.2-.09-.15.07-.34.24-.56.5-.22.26-.38.48-.48.67ZM206.03,79.32c-.1.22-.25.44-.47.64-.22.21-.44.36-.65.46-.34.16-.45.07-.32-.25.03-.08.11-.21.23-.4.38-.59.71-.95.99-1.08.17-.07.27-.05.31.07.04.12,0,.31-.1.55ZM213.86,56.91c-.2-.04-.39-.02-.56.06-.28.13-.46.48-.54,1.06-.08.59-.15.89-.2.91-.09.04-.26-.08-.51-.36-.14-.2-.28-.33-.41-.39-.13-.06-.3-.05-.52.04-.09.04-.21.13-.38.26s-.29.28-.37.41c-.23.4-.34.73-.33,1.01,0,.18.08.36.22.54.07.08.17.21.31.39-.09,0-.17.02-.25.04-.08.02-.16.04-.25.08-.18.07-.34.18-.48.34-.14.16-.21.36-.21.62,0,.43.25.72.75.85.15.04.39.06.71.06.15.04.29.03.42-.02.15-.06.25-.18.3-.35.05-.17,0-.23-.12-.17-.26,0-.64.05-1.08.05-.33,0-.59-.16-.72-.45,0-.2.13-.35.4-.46.24-.09.61-.13,1.09-.12.18,0,.35.01.52.02.18-.07.25-.16.23-.27-.02-.1-.14-.15-.36-.14-.28-.14-.51-.29-.66-.46-.25-.24-.38-.5-.39-.77,0-.18.04-.36.15-.54.1-.18.22-.3.36-.35.2-.08.43-.02.68.19.25.2.53.49.82.86.11.21.25.28.43.2.07-.03.12-.08.16-.15.04-.07.04-.12,0-.15-.13-.07-.2-.41-.21-.99,0-.28.03-.61.11-1.01.08-.39.25-.56.52-.5.38.11.67.45.83,1.04.05.18.09.46.14.82.34-.55.59-.94.76-1.18.54-.75.95-1.06,1.07-.93.14.17.04.68-.27,1.33-.11.21-.27.5-.51.87.13-.09.42-.32.87-.7.45-.38.8-.64,1.04-.78.37-.21.56-.2.57.05.09.43-.3.96-1.18,1.57-.88.61-1.34,1.04-1.36,1.34.5-.26,1-.49,1.5-.69.49-.2.78-.19.85.05.02.18.03.29.02.34-.04.35-.28.66-.75.93-.3.17-.76.32-1.38.43-.18.05-.43.08-.75.1-.06-.04-.13,0-.22.11-.09.12-.14.21-.14.29-.03.4.26.77.82,1.09.27.16.41.33.43.52,0,.06-.04.2-.16.4-.12.21-.26.35-.42.44-.2.11-.43.08-.69-.08-.26-.16-.55-.49-.9-1.01-.04-.17-.11-.23-.19-.19-.06.03-.19.2-.4.52s-.34.49-.4.52c-.11.05-.13-.19-.09-.71.01-.17-.07-.19-.25-.04-.27.23-.51.56-.72.97-.21.41-.34.8-.38,1.17-.05.41,0,.59.15.53.15-.06.36-.29.63-.69.12-.19.25-.4.37-.62.08.13.12.2.2.33.18-.2.37-.5.56-.91.03-.11.09-.24.16-.39.05.17.08.26.13.43.19.35.42.57.68.68.26.11.58.06.96-.14.18-.1.39-.24.62-.43.1-.05.19-.16.27-.31.08-.15.17-.33.26-.54.07-.11-.1-.39-.57-.87-.15-.15-.4-.37-.75-.67.36-.01.73-.04,1.12-.07s.72-.13,1-.3c.34-.2.59-.51.77-.87.18-.35.33-.67.35-.95.04-.38-.16-.55-.58-.55-.2.07-.4.12-.6.16.11-.13.22-.28.35-.45.82-.54,1.25-1.31,1.09-1.98-.08-.32-.37-.43-.69-.24-.22.13-.48.34-.77.63-.14.13-.34.32-.59.55.06-.14.15-.33.25-.59.02-.09.03-.22.03-.4,0-.07,0-.16,0-.25,0-.09-.02-.21-.06-.37-.04-.16-.15-.19-.34-.09-.23.12-.58.51-1.06,1.15-.15.2-.34.49-.6.87-.01-.82-.25-1.32-.71-1.55ZM212.38,63.1c-.12-.41-.35-.55-.67-.41-.24.1-.61.38-1.13.83-.04.02-.17.24-.39.65-.22.41-.33.71-.34.88-.01.17.07.23.24.16.19.02.64-.32,1.34-1.05.22-.21.54-.57.95-1.06Z"/>
      </g>
      <g>
        <path class="cls-1" d="M162.61,33.56c-.43.3-.43.11.13-.51,1.05-1,1.59-1.41,1.6-1.26,0,.15-.35.74-1.07,1.81-.02-.34-.22-.35-.65-.05ZM179.01,30.02c-.35-.53-.82-.65-1.45-.4-.63.25-1.21.88-1.74,1.89s-1.17,3.46-1.53,7.73c-.37,4.28-1.04,7.31-2.39,8.73-1.12-2.36-1.72-5.13-1.62-8.32.1-3.19-.37-5.17-1.51-5.89-1.82,1.59-3.27,3.79-3.99,6.78-.71,2.98-1.27,5.46-1.94,7.25-1.4-1.05-2.13-3.44-1.51-6.95.62-3.51,1.51-5.2,1.81-5.64.3-.44.6-.81.88-1.11.28-.3.75-.75,1.4-1.33-1.87.98-2.78,1.55-4.49,2.79.5-.24.8-.24.86-.03.06.21.02.6-.1,1.2-.12.6-1.17,2.79-2.13,7.16s.28,7.45,3.13,9.67c1.42-2.48,2.17-5.52,2.53-8.97.37-3.45,1.39-5.59,2.61-6.66.91.66,1.2,2.76,1.2,6.43,0,3.67,1.16,6.92,3.22,10.13,2.16-1.89,3.01-6.26,3.19-12.34.18-6.08.82-9.19,1.26-10.02.44-.82.92-1.23,1.46-1.19.53.04.86.8,1.04,2.36.2-1.66.13-2.75-.21-3.27ZM166.64,30.71c.72-.94,1.58-1.93,2.52-2.95-1.37,1.01-2.33,1.88-2.94,2.52-.6.64-1.25,1.44-1.88,2.45.78-.41,1.56-1.07,2.29-2.01Z"/>
        <path class="cls-1" d="M190.56,55.49c-.09,1.77-.47,2.68-1.15,2.69-.68,0-1.19-.31-1.52-.94-.33-.63-.64-1.49-.94-2.56-.45.9-1.01,1.54-1.68,1.89-.67.36-1.39.45-2.16.29-1.11-.24-2.07-.95-2.86-2.07-.8-1.12-1.22-2.53-1.26-4.23-.04-1.7.29-2.96.96-3.86.67-.9,1.41-1.49,2.21-1.75.81-.26,1.6-.26,2.38.03.78.29,1.52,1.06,2.25,2.33.21-2.69.07-4.66-.41-5.93-.48-1.28-.99-2.11-1.55-2.51-.56-.41-1.21-.55-1.96-.43-.75.11-1.19.49-1.3,1.14-.11.65-.09,1.04.07,1.16.16.13.31.13.44,0,.13-.13.24-.49.32-1.09.2,1.23.15,2.05-.18,2.4-.34.36-.74.4-1.2.13-.46-.27-.76-.97-.89-2.06-.13-1.09.13-2.06.76-2.94.63-.88,1.92-1.46,3.24-1.21,1.43.27,2.74,1.45,3.42,2.75.68,1.3,1.04,3,1.1,5.11-.24,6.69-.2,10.62-.04,11.34.16.72.42,1.17.8,1.34.38.17.75-.16,1.13-.99ZM186.58,50.3c-.33-1.47-.8-2.4-1.44-2.81-.64-.41-1.31-.43-2-.1-.69.33-1.19.76-1.48,1.28-.3.53-.44,1.19-.42,2,.02.69.19,1.33.52,1.92.33.59.8.95,1.43,1.07.62.12,1.29-.06,1.99-.54.71-.48,1.17-1.44,1.4-2.84ZM190.71,54.22c-.66-.79-1.03-1.5-1.09-2.11s.13-1.56.56-2.84c.45.88.67,1.59.66,2.13-.01.54-.06,1.48-.13,2.82ZM191.27,55c.31-.83.64-1.24.98-1.21.35.02.79-.14,1.33-.48-.41,1.44-.84,2.29-1.28,2.51-.44.22-.79-.06-1.03-.81Z"/>
        <path class="cls-1" d="M198.66,41.15c.25-.1.4-.24.45-.4.05-.16-.03-.43-.22-.79-.19-.37-.68-.65-1.37-.74-.52-.06-.99.19-1.3.69-.31.5-.45,1.07-.41,1.69.05.8.23,1.5.53,2.08.31.61.87,1.26,1.7,1.89.77.62,1.16.93,1.94,1.52,1.81,1.34,2.85,3.01,3.04,5.3.15,1.78-.14,3.3-.87,4.56-.73,1.25-1.62,1.98-2.64,2.1-.73.09-1.49-.29-2.29-1.14-.8-.85-1.35-1.23-1.66-1.11-.31.12-.37.85-.19,2.17-.47-.27-.82-.81-1.06-1.58-.23-.78-.11-1.46.38-2.07.49-.6,1.19-.32,2.1.81.92,1.13,1.8,1.64,2.65,1.55.6-.06,1.08-.43,1.41-1.07.33-.64.47-1.39.41-2.23-.07-.99-.34-1.8-.81-2.44s-1.36-1.44-2.66-2.46c-1.3-1.02-2.18-2.01-2.6-2.87-.42-.86-.66-1.93-.73-3.19-.09-1.66.16-3,.73-4.03.56-1.03,1.32-1.5,2.28-1.43.43.03.84.25,1.23.64.4.39.65.93.77,1.61.11.69-.15,1-.8.92ZM196.06,54.81c-.44-.48-.69-.85-.74-1.09-.05-.24-.13-.85-.26-1.82.3.49.55.91.74,1.27.19.36.28.91.25,1.64Z"/>
        <path class="cls-1" d="M204.35,38.06c.21,1.07.51,2.19.8,3.3.67-.46,1.19-.56,1.59-.34.4.22.63-.06.66-.81.3,1.22.05,1.77-.73,1.61-.78-.16-1.04.89-.84,3.27s.32,4.31.43,5.72c.1,1.42.34,2.44.73,3.03.39.58.94.65,1.54.43.25-.09.54-.3.77-.64.23-.34.55-.83.94-1.46-.15,1.3-.47,2.37-.94,3.18-.47.82-.99,1.34-1.56,1.52-.38.12-.77.07-1.16-.18-.39-.24-.7-.67-.93-1.27-.23-.6-.41-1.6-.54-2.97.24-8.25-1.07-12.06-3.23-12.97.35-.2.65-.23.92-.09.26.14.64.5,1.12,1.06-.29-.92-.5-2.14-.42-3.33.08-1.19.53-1.78,1.09-1.61.56.17.83-.16.79-.96.09.9-.12,1.38-.61,1.44-.49.06-.66.78-.41,2.08ZM205.5,34.43c.24-.22.33-.5.25-.85-.07-.35-.25-.77-.52-1.25.02.38.01.73-.02,1.04-.03.32.06.67.28,1.06ZM205.69,35.66c.01-.45.09-.72.22-.82.14-.11.41-.08.82.08-.07.45-.19.75-.33.88-.15.13-.38.09-.71-.14Z"/>
        <path class="cls-1" d="M211.05,44.88c.46,2.3,1.16,4.09,2.15,5.14,1.01,1.06,2.04,1.34,3.07.89.7-.3,1.25-.83,1.64-1.53.4-.7.76-1.65,1.04-2.75.19,1.25.02,2.58-.53,4.07-.55,1.49-1.45,2.65-2.65,3.25-1.3.64-2.54.41-3.69-.79-1.15-1.2-1.89-3.25-2.31-5.86-.44-2.81-.39-4.98.17-6.42.55-1.44,1.41-1.99,2.66-1.9,1.05.08,1.98.52,2.82,1.26.84.73,1.25,1.48,1.17,2.44-.08.97-1.82,1.87-5.53,2.21ZM210.92,44.37c2.9-.22,4.14-1.24,3.86-2.71-.11-.54-.45-.93-1.02-1.22-.56-.29-1.03-.45-1.41-.46-.59-.02-1.02.28-1.32.97-.3.68-.33,1.82-.11,3.43ZM219.01,46.02c-.43-.58-.79-.99-1.08-1.21-.28-.22-.79-.08-1.57.44.59.33,1.02.55,1.31.69.29.14.74.18,1.33.08ZM219.28,45.69c-.27-.64-.41-1.08-.41-1.33,0-.25.21-.62.69-.88.25.73.32,1.19.27,1.39-.05.2-.23.47-.55.83Z"/>
      </g>
    </g>
  </g>
</svg>